<?xml version="1.0" standalone="no"?><!DOCTYPE svg PUBLIC "-//W3C//DTD SVG 1.1//EN" "http://www.w3.org/Graphics/SVG/1.1/DTD/svg11.dtd"><svg t="1490698165293" class="icon" style="" viewBox="0 0 1024 1024" version="1.1" xmlns="http://www.w3.org/2000/svg" p-id="19019" xmlns:xlink="http://www.w3.org/1999/xlink" width="200" height="200"><defs><style type="text/css"></style></defs><path d="M0.0455 660.5c3.7-88.2 81.6-159.2 189.7-206.2 46.1-20.3 89.7-20.9 114.3 31.8 28.7 61.1-20.3 81.3-60.8 98.4-81 34.6-121.5 91.3-81.9 173.5 37.4 77.3 112.2 92.8 189.7 65.7 65.1-22.7 91.9-74.1 90.3-144.2-2.5-114.6-2.2-229.3 0-343.6C444.0455 198.8 507.9455 110.6 632.5455 66.1 747.1455 25 890.8455 63 968.0455 154.6c120.9 143 31.5 392.2-153.6 429.6-40.5 8.1-75.4 0.6-93.2-38.6-16.2-35.8 6.9-62.6 32.1-84.7 12.2-10.6 27.4-17.4 41.4-25.5 60.8-35.5 110.6-80.1 80.4-157.3-28-71.7-92.5-89.4-162.6-80.1-79.8 10.3-124 57.6-124.3 140.5-0.6 126.8 4 253.9-2.2 380.7-6.9 141.8-158.6 268.2-305 263.3-157-6.1-283.8-132.6-281-322z" p-id="19020" fill="#13227a"></path></svg>