<?xml version="1.0" standalone="no"?><!DOCTYPE svg PUBLIC "-//W3C//DTD SVG 1.1//EN" "http://www.w3.org/Graphics/SVG/1.1/DTD/svg11.dtd"><svg t="1490696720887" class="icon" style="" viewBox="0 0 1024 1024" version="1.1" xmlns="http://www.w3.org/2000/svg" p-id="7185" xmlns:xlink="http://www.w3.org/1999/xlink" width="200" height="200"><defs><style type="text/css"></style></defs><path d="M75.574744 224.14806c0 0-22.10546-146.428977 187.867762-150.573367 209.975269-4.14439 232.073566 178.198541 232.073566 178.198541l176.823218 0c0 0 41.433668 8.28878 40.058344 58.021461-1.384533 49.730635-34.537608 48.346101-34.537608 48.346101l-413.036058 0.00614c0 0-49.729611-1.384533-51.111075 56.634882-1.379417 58.019415 9.68457 145.023978-59.398832 145.047514-46.969755 0.016373-48.349171-56.644091-48.349171-56.644091L75.574744 224.14806z" p-id="7186" fill="#1296db"></path><path d="M946.595584 797.393959c0 0 22.106484 146.431024-187.866738 150.575414-209.977315 4.14439-232.074589-178.200588-232.074589-178.200588L349.831039 769.768785c0 0-41.436738-8.28878-40.057321-58.019415 1.38044-49.730635 34.534538-48.355311 34.534538-48.355311l413.035034 0c0 0 49.726541 1.384533 51.111075-56.634882 1.384533-58.020438-9.679453-145.022954 59.402925-145.04649 46.962591-0.016373 48.346101 56.634882 48.346101 56.634882L946.595584 797.393959z" p-id="7187" fill="#1296db"></path></svg>