<?xml version="1.0" standalone="no"?><!DOCTYPE svg PUBLIC "-//W3C//DTD SVG 1.1//EN" "http://www.w3.org/Graphics/SVG/1.1/DTD/svg11.dtd"><svg t="1490698038701" class="icon" style="" viewBox="0 0 1024 1024" version="1.1" xmlns="http://www.w3.org/2000/svg" p-id="17606" xmlns:xlink="http://www.w3.org/1999/xlink" width="200" height="200"><defs><style type="text/css"></style></defs><path d="M285.901007 201.187115c97.543593 14.641465 120.586402 129.034818 225.347374 126.368082 101.657284-2.583848 139.80307-132.724861 242.84591-120.768551 171.809017 19.932981 286.129716 567.204299 135.203308 644.065851-40.320311 20.530592-96.830349 6.388501-140.53985-33.92874-71.166853-54.755068-149.658532-86.047772-241.164618-93.472881-72.721255-5.913687-130.638339 12.713556-190.243879 50.741661-21.097504 15.968693-42.195008 31.93841-63.291488 47.90608-32.343639 28.359908-65.87636 52.977585-108.032482 32.266891C-35.363927 765.237585 116.933711 175.792749 285.901007 201.187115L285.901007 201.187115zM659.63699 548.912701c-24.310685 0-44.022633 19.708877-44.022633 44.017516 0 24.312732 19.711947 44.019563 44.022633 44.019563 24.308639 0 44.020586-19.706831 44.020586-44.019563C703.657576 568.621579 683.945629 548.912701 659.63699 548.912701L659.63699 548.912701zM741.008252 410.379555c-24.306592 0-44.018539 19.709901-44.018539 44.017516 0 24.308639 19.711947 44.019563 44.018539 44.019563 24.311709 0 44.020586-19.710924 44.020586-44.019563C785.027815 430.089455 765.319961 410.379555 741.008252 410.379555L741.008252 410.379555zM326.391187 471.231481l-85.247546 0 0 66.347081 85.247546-0.320295 0 87.715761 71.874981 0.004093 0.1361-87.719854 82.987063 0 0-66.025763-83.123162 0L398.266168 384.582005l-71.874981-0.097214L326.391187 471.231481z" p-id="17607" fill="#1afa29" class="selected"></path></svg>