<?xml version="1.0" standalone="no"?><!DOCTYPE svg PUBLIC "-//W3C//DTD SVG 1.1//EN" "http://www.w3.org/Graphics/SVG/1.1/DTD/svg11.dtd"><svg t="1490697668864" class="icon" style="" viewBox="0 0 1024 1024" version="1.1" xmlns="http://www.w3.org/2000/svg" p-id="9377" xmlns:xlink="http://www.w3.org/1999/xlink" width="200" height="200"><defs><style type="text/css"></style></defs><path d="M620.470457 842.147232" p-id="9378" fill="#1296db"></path><path d="M353.384469 255.43974m-103.923908 0a101.557 101.557 0 1 0 207.847815 0 101.557 101.557 0 1 0-207.847815 0Z" p-id="9379" fill="#1296db"></path><path d="M670.614507 255.43974m-103.923908 0a101.557 101.557 0 1 0 207.847815 0 101.557 101.557 0 1 0-207.847815 0Z" p-id="9380" fill="#1296db"></path><path d="M810.444183 715.908086l-0.12996 0.074701-97.816816-169.423691 1.074472 0 0-44.926212 148.579967 0 0-81.777515L544.747845 419.85537l-61.533448 0L165.810397 419.85537l0 81.777515 148.579967 0 0 39.777959-100.768031 174.535105-0.066515-0.038886-87.895863 152.240333L196.479907 909.036665l21.309328-36.908608 0.067538 0.038886 135.39876-234.517221 111.488187 193.102996-0.303922 0.525979 0.910743 0.525979 23.303752 40.36329 23.332405 40.62014 23.275099-40.62014 23.303752-40.36329 0.910743-0.525979-0.303922-0.525979 111.488187-193.102996L806.058292 872.166943l0.130983-0.075725L827.520093 909.036665l70.819952-40.888246L810.444183 715.908086zM631.794363 541.410843 511.958044 748.97418 395.093407 546.559097l1.074472 0 0-44.926212 87.046518 0 61.533448 0 87.046518 0L631.794363 541.410843z" p-id="9381" fill="#1296db"></path></svg>