<?xml version="1.0" standalone="no"?><!DOCTYPE svg PUBLIC "-//W3C//DTD SVG 1.1//EN" "http://www.w3.org/Graphics/SVG/1.1/DTD/svg11.dtd"><svg t="1490698450981" class="icon" style="" viewBox="0 0 1024 1024" version="1.1" xmlns="http://www.w3.org/2000/svg" p-id="20455" xmlns:xlink="http://www.w3.org/1999/xlink" width="200" height="200"><defs><style type="text/css"></style></defs><path d="M510.98795 63.72844c-247.161193 0-447.523523 200.361307-447.523523 447.523523s200.361307 447.523523 447.523523 447.523523 447.523523-200.361307 447.523523-447.523523S758.149143 63.72844 510.98795 63.72844L510.98795 63.72844zM402.608567 746.368842c-24.947182 0-45.173852-20.222577-45.173852-45.169759s20.22667-45.173852 45.173852-45.173852 45.168736 20.22667 45.168736 45.173852S427.554726 746.368842 402.608567 746.368842L402.608567 746.368842zM590.212316 746.368842c-24.947182 0-45.173852-20.222577-45.173852-45.169759s20.22667-45.173852 45.173852-45.173852 45.169759 20.22667 45.169759 45.173852S615.159498 746.368842 590.212316 746.368842L590.212316 746.368842zM801.095257 340.275917l-99.284237 0-98.392938 279.078113-0.127913-0.149403c0.01228 0.051165 0.025583 0.098237 0.037862 0.149403L322.734402 619.35403c-6.965645 0-12.612249-8.011464-12.612249-17.891486l0-25.058722c0-9.881045 5.646604-17.887392 12.612249-17.887392l245.082858 0 11.531638-33.081443L280.190447 525.434987c-8.715499 0-15.779382-8.011464-15.779382-17.891486l0-25.058722c0-9.881045 7.063883-17.891486 15.779382-17.891486L600.562035 464.593294l10.598382-30.397311L267.095197 434.195983c-9.881045 0-17.891486-8.007371-17.891486-17.887392l0-25.062815c0-9.875928 8.011464-17.887392 17.891486-17.887392l365.273241 0 32.394804-92.916203 97.873098 0C784.994558 279.67777 820.104193 326.413188 801.095257 340.275917L801.095257 340.275917zM801.095257 340.275917" p-id="20456" fill="#d81e06"></path></svg>