<?xml version="1.0" standalone="no"?><!DOCTYPE svg PUBLIC "-//W3C//DTD SVG 1.1//EN" "http://www.w3.org/Graphics/SVG/1.1/DTD/svg11.dtd"><svg t="1491382041508" class="icon" style="" viewBox="0 0 1024 1024" version="1.1" xmlns="http://www.w3.org/2000/svg" p-id="3181" xmlns:xlink="http://www.w3.org/1999/xlink" width="200" height="200"><defs><style type="text/css"></style></defs><path d="M512 960C264.576 960 64 759.424 64 512 64 264.576 264.576 64 512 64 759.424 64 960 264.576 960 512 960 759.424 759.424 960 512 960ZM512 80C273.408 80 80 273.408 80 512 80 750.592 273.408 944 512 944 750.592 944 944 750.592 944 512 944 273.408 750.592 80 512 80ZM512 800C363.824 800 242.448 687.904 226.464 544L797.536 544C781.552 687.904 660.176 800 512 800ZM680 432C649.072 432 624 399.76 624 360 624 320.24 649.072 288 680 288 710.928 288 736 320.24 736 360 736 399.76 710.928 432 680 432ZM344 432C313.072 432 288 399.76 288 360 288 320.24 313.072 288 344 288 374.928 288 400 320.24 400 360 400 399.76 374.928 432 344 432Z" p-id="3182"></path></svg>