<?xml version="1.0" standalone="no"?><!DOCTYPE svg PUBLIC "-//W3C//DTD SVG 1.1//EN" "http://www.w3.org/Graphics/SVG/1.1/DTD/svg11.dtd"><svg t="1490698528352" class="icon" style="" viewBox="0 0 1024 1024" version="1.1" xmlns="http://www.w3.org/2000/svg" p-id="21725" xmlns:xlink="http://www.w3.org/1999/xlink" width="200" height="200"><defs><style type="text/css"></style></defs><path d="M512 512m-447.703 0a447.703 447.703 0 1 0 895.406 0 447.703 447.703 0 1 0-895.406 0Z" fill="#2BBED6" p-id="21726"></path><path d="M912.213 712.62L762.471 562.877l-70.095 24.011-46.8 13.372-53.486-13.372-42.343-20.057h-53.486l-33.429 24.515-49.029 6.686-31.2-8.914-46.8-20.057-51.554-6.182v167.729l11.215 11.213 217.849 217.85c174.547-0.505 325.505-100.926 398.9-247.051z" fill="#25ADCC" p-id="21727"></path><path d="M413.577 545.14c56.95 0 52.772-36.463 109.722-36.463 56.99 0 56.99 36.463 113.979 36.463l-3.863-10.459-32.613-96.81c-14.694-43.617-56.576-70.292-100.41-67.735l-42.374-125.787c11.361-5.869 17.108-19.226 12.9-31.718l-1.876-5.569c-4.645-13.787-19.587-21.198-33.374-16.554l-54.193 18.257c-13.788 4.645-21.199 19.587-16.555 33.374l1.876 5.57c4.208 12.491 16.866 19.648 29.463 17.446l42.374 125.787c-36.446 24.488-53.65 71.068-38.957 114.685l11.584 34.387 2.317 5.126z" fill="#C5E8F7" p-id="21728"></path><path d="M637.281 778.287c-31.768 0-48.381-10.629-63.033-20.002-13.809-8.832-25.735-16.465-50.954-16.465-25.188 0-37.102 7.627-50.9 16.459-14.641 9.379-31.242 20.007-63 20.007-31.768 0-48.369-10.629-63.011-20.002-13.798-8.838-25.723-16.465-50.922-16.465-6.198 0-11.213-5.021-11.213-11.213s5.015-11.214 11.213-11.214c31.769 0 48.37 10.629 63.011 20.002 13.799 8.838 25.724 16.465 50.922 16.465 25.198 0 37.113-7.627 50.911-16.465 14.642-9.373 31.232-20.002 62.99-20.002 31.779 0 48.392 10.629 63.044 20.002 13.808 8.838 25.734 16.465 50.943 16.465 25.209 0 37.135-7.633 50.944-16.465 14.652-9.373 31.254-20.002 63.033-20.002 6.198 0 11.214 5.021 11.214 11.214s-5.016 11.213-11.214 11.213c-25.208 0-37.134 7.633-50.943 16.465-14.654 9.374-31.255 20.003-63.035 20.003zM637.281 694.419c-31.768 0-48.381-10.622-63.033-19.997-13.809-8.838-25.735-16.465-50.954-16.465-25.188 0-37.102 7.627-50.9 16.459-14.641 9.373-31.242 20.002-63 20.002-31.768 0-48.369-10.622-63.011-20.002-13.798-8.832-25.723-16.459-50.922-16.459-6.198 0-11.213-5.021-11.213-11.213s5.015-11.213 11.213-11.213c31.769 0 48.37 10.622 63.011 20.001 13.799 8.832 25.724 16.459 50.922 16.459 25.198 0 37.113-7.627 50.911-16.465 14.642-9.373 31.232-19.996 62.99-19.996 31.779 0 48.392 10.622 63.044 20.001 13.808 8.832 25.734 16.459 50.943 16.459 25.209 0 37.135-7.627 50.944-16.465 14.652-9.373 31.254-19.996 63.033-19.996 6.198 0 11.214 5.021 11.214 11.213s-5.016 11.213-11.214 11.213c-25.208 0-37.134 7.627-50.943 16.465-14.654 9.377-31.255 19.999-63.035 19.999zM637.281 610.552c-31.768 0-48.381-10.622-63.033-19.997-13.809-8.837-25.735-16.465-50.954-16.465-25.188 0-37.102 7.628-50.9 16.459-14.641 9.374-31.242 20.002-63 20.002-31.768 0-48.369-10.622-63.011-20.002-13.798-8.831-25.723-16.459-50.922-16.459-6.198 0-11.213-5.021-11.213-11.213s5.015-11.213 11.213-11.213c31.769 0 48.37 10.622 63.011 20.001 13.799 8.832 25.724 16.459 50.922 16.459 25.198 0 37.113-7.627 50.911-16.465 14.642-9.373 31.232-19.996 62.99-19.996 31.779 0 48.392 10.622 63.044 20.001 13.808 8.832 25.734 16.459 50.943 16.459 25.209 0 37.135-7.627 50.944-16.465 14.652-9.373 31.254-19.996 63.033-19.996 6.198 0 11.214 5.021 11.214 11.213s-5.016 11.213-11.214 11.213c-25.208 0-37.134 7.628-50.943 16.465-14.654 9.377-31.255 19.999-63.035 19.999z" fill="#FFFFFF" p-id="21729"></path><path d="M433.989 516.243a5.618 5.618 0 0 1-5.3-3.766c-1.007-2.924 0.537-6.122 3.461-7.135l146.687-50.976c2.924-1.019 6.111 0.525 7.14 3.454 1.007 2.924-0.537 6.122-3.461 7.135l-146.687 50.976a5.541 5.541 0 0 1-1.84 0.312z" fill="#25ADCC" p-id="21730"></path><path d="M560.307 440.551a11.162 11.162 0 0 1-8.542-3.954c-9.242-10.874-23.292-16.941-37.496-16.026-6.329 0.307-11.487-4.359-11.849-10.546-0.361-6.182 4.359-11.488 10.535-11.849 21.376-1.211 42.128 7.698 55.893 23.9 4.019 4.719 3.439 11.794-1.281 15.808a11.157 11.157 0 0 1-7.26 2.667z" fill="#FFFFFF" p-id="21731"></path></svg>