<?xml version="1.0" standalone="no"?><!DOCTYPE svg PUBLIC "-//W3C//DTD SVG 1.1//EN" "http://www.w3.org/Graphics/SVG/1.1/DTD/svg11.dtd"><svg t="1490751203707" class="icon" style="" viewBox="0 0 1024 1024" version="1.1" xmlns="http://www.w3.org/2000/svg" p-id="5198" xmlns:xlink="http://www.w3.org/1999/xlink" width="200" height="200"><defs><style type="text/css"></style></defs><path d="M512 231.424c183.296 0 331.776 125.952 331.776 280.576S695.296 792.576 512 792.576c-67.584 0-133.12-17.408-189.44-50.176l-16.384-9.216-17.408 6.144-72.704 25.6 24.576-55.296 10.24-22.528-15.36-20.48c-35.84-46.08-55.296-99.328-55.296-154.624 0-154.624 148.48-280.576 331.776-280.576m0-40.96c-205.824 0-372.736 143.36-372.736 321.536 0 66.56 23.552 128 63.488 179.2l-63.488 141.312 162.816-56.32c59.392 34.816 132.096 56.32 209.92 56.32 205.824 0 372.736-143.36 372.736-321.536 0-176.128-166.912-320.512-372.736-320.512z" fill="#999999" p-id="5199"></path></svg>