<?xml version="1.0" standalone="no"?><!DOCTYPE svg PUBLIC "-//W3C//DTD SVG 1.1//EN" "http://www.w3.org/Graphics/SVG/1.1/DTD/svg11.dtd"><svg t="1490751827985" class="icon" style="" viewBox="0 0 1024 1024" version="1.1" xmlns="http://www.w3.org/2000/svg" p-id="11862" xmlns:xlink="http://www.w3.org/1999/xlink" width="200" height="200"><defs><style type="text/css"></style></defs><path d="M762.818489 707.159842l-169.19447-65.932642c0 0-32.253588-12.526291-44.790112-24.848944-8.054443-7.91732-7.477298-26.598798-0.347924-50.465368 7.129374-23.865547 93.856621-120.844276 93.856621-208.934566 0-136.066979-89.436962-246.375294-199.76165-246.375294S242.820328 220.911342 242.820328 356.978321c0 84.375689 77.281107 184.961572 86.826508 203.246007 9.5454 18.284435 7.220449 46.140876-0.311085 54.586223-11.314697 12.687974-52.658314 25.393343-52.658314 25.393343l-152.525835 67.980277c-35.636638 12.795421-63.549362 46.402843-63.549362 84.323501l0 17.97949c0 41.379433 33.606399 66.700121 74.9142 66.700121l255.804037 0 87.678922 0L751.455697 877.187283c41.307801 0 74.9142-25.321712 74.9142-66.700121l0-17.97949C826.367851 754.585991 798.455127 719.954239 762.818489 707.159842zM733.545792 422.425915c-17.599843 0-31.883151-8.940626-31.883151-27.821649 0-18.879999 14.283308-27.819602 31.883151-27.819602l224.031403 0c17.59575 0 30.853705 8.940626 30.853705 27.819602 0 18.879999-15.305591 27.821649-32.901341 27.821649L733.545792 422.425915zM781.050736 549.904285c-17.599843 0-31.883151-8.940626-31.883151-27.820626s14.283308-27.819602 31.883151-27.819602l176.956248 0c17.59575 0 29.830399 8.940626 29.830399 27.819602 0 18.879999-13.258978 27.820626-30.854728 27.820626L781.050736 549.904285zM839.896982 669.983127c-17.599843 0-31.883151-8.940626-31.883151-27.820626s14.283308-27.819602 31.883151-27.819602L958.521706 614.3429c17.59575 0 30.832216 8.940626 30.832216 27.819602 0 18.879999-14.259772 27.820626-31.855522 27.820626L839.896982 669.983127z" p-id="11863" fill="#1aad19"></path></svg>