<?xml version="1.0" standalone="no"?><!DOCTYPE svg PUBLIC "-//W3C//DTD SVG 1.1//EN" "http://www.w3.org/Graphics/SVG/1.1/DTD/svg11.dtd"><svg t="1490753954576" class="icon" style="" viewBox="0 0 1024 1024" version="1.1" xmlns="http://www.w3.org/2000/svg" p-id="2551" xmlns:xlink="http://www.w3.org/1999/xlink" width="200" height="200"><defs><style type="text/css"></style></defs><path d="M874.048 149.952c-199.936-199.936-524.16-199.936-724.096 0s-199.936 524.16 0 724.096 524.16 199.936 724.096 0S1073.984 349.888 874.048 149.952zM184.64 839.36C3.84 658.56 3.84 365.44 184.64 184.64s473.92-180.8 654.72 0 180.8 473.92 0 654.784S365.44 1020.16 184.64 839.36z" p-id="2552"></path><path d="M437.376 432.704l-187.008 345.664 339.072-193.6 193.6-339.072L437.376 432.704zM516.672 545.536C498.112 545.536 483.136 530.56 483.136 512c0-18.496 15.04-33.536 33.536-33.536 18.496 0 33.536 15.04 33.536 33.536C550.208 530.56 535.168 545.536 516.672 545.536z" p-id="2553"></path></svg>