<?xml version="1.0" standalone="no"?><!DOCTYPE svg PUBLIC "-//W3C//DTD SVG 1.1//EN" "http://www.w3.org/Graphics/SVG/1.1/DTD/svg11.dtd"><svg t="1490697315872" class="icon" style="" viewBox="0 0 1024 1024" version="1.1" xmlns="http://www.w3.org/2000/svg" p-id="8624" xmlns:xlink="http://www.w3.org/1999/xlink" width="200" height="200"><defs><style type="text/css"></style></defs><path d="M856.196203 637.361149l9.886161-2.548032c21.778003-5.612834 34.836413-27.640524 29.167297-49.201585l-0.914836-3.477194c-5.669116-21.560038-27.918863-34.488489-49.696866-28.876678l-9.657964 2.488681-2.394537-9.211802 11.614525-2.993171c21.778003-5.612834 34.836413-27.640524 29.167297-49.201585l-1.313925-4.998851c-5.669116-21.561062-27.918863-34.488489-49.696866-28.876678l-11.382235 2.933819-2.362814-9.087982 21.988804-5.66707c21.778003-5.612834 34.836413-27.640524 29.167297-49.201585l-2.432399-9.250688c-5.669116-21.560038-27.918863-34.488489-49.696866-28.876678l-21.744233 5.603625-3.095501-11.906168 5.699816-1.469468c21.778003-5.612834 34.836413-27.640524 29.167297-49.201585l-1.721201-6.544043c-5.669116-21.560038-27.918863-34.488489-49.696866-28.876678l-5.463432 1.408069-27.5341-105.921401c-6.737448-25.873274-33.631982-41.585117-59.766199-34.914184l-325.259922 81.313957c-26.134217 6.670933-42.004673 33.298384-35.268248 59.171658l9.320273 35.852556c-29.024034 20.593014-63.441914 51.510164-61.038168 73.723072 3.504824 32.387641 0 79.812767 9.346879 99.476619s43.228547 75.185376 21.029966 102.94665S146.740062 712.684672 139.729391 716.154703c-7.009647 3.470031-19.862373 23.133883 0 43.954071 19.862373 20.820188 119.172193 98.31926 132.023896 111.043049s52.575426 31.231305 87.626733-6.940063c20.880563-22.738887 57.768705-62.98245 84.184331-91.806939l22.499433 86.554308c6.737448 25.874297 33.633005 41.585117 59.767222 34.915207l325.259922-81.313957c26.134217-6.670933 42.004673-33.29736 35.267225-59.171658L856.196203 637.361149zM793.267988 718.170616l-265.412882 66.352197c-21.325701 5.442966-43.271526-7.377014-48.770773-28.490891l-4.491291-17.491373 0 0L427.031816 553.294498l-30.625508-119.28271 90.323145 0c0 0 78.279854-3.561106 53.744042-45.201481-21.268396-36.096103-128.556934-94.77862-171.2155-102.988606 5.116531-9.41544 14.011108-16.787338 25.229614-19.650549l265.412882-66.353221c21.326724-5.441942 43.272549 7.378038 48.770773 28.490891l13.354146 52.012607-50.293453 12.96222c-21.778003 5.612834-34.836413 27.640524-29.167297 49.201585l1.721201 6.544043c5.669116 21.560038 27.918863 34.488489 49.696866 28.876678l49.802266-12.83533 3.059686 11.915377-69.134567 17.817808c-21.778003 5.612834-34.836413 27.640524-29.167297 49.201585l2.432399 9.250688c5.669116 21.560038 27.918863 34.488489 49.696866 28.876678l68.62803-17.686824 2.335185 9.095145-43.794435 11.287067c-21.778003 5.612834-34.836413 27.640524-29.167297 49.201585l1.313925 4.998851c5.669116 21.561062 27.918863 34.488489 49.696866 28.876678l43.312458-11.162224 2.366907 9.218966-30.489408 7.857968c-21.778003 5.612834-34.836413 27.640524-29.167297 49.201585l0.914836 3.477194c5.669116 21.560038 27.918863 34.488489 49.696866 28.876678l30.015617-7.736195 5.713119 22.251793C827.543629 690.99979 814.594713 712.727651 793.267988 718.170616z" p-id="8625" fill="#1296db"></path></svg>